<svg xmlns="http://www.w3.org/2000/svg" version="1.1" xmlns:xlink="http://www.w3.org/1999/xlink" xmlns:svgjs="http://svgjs.dev/svgjs" viewBox="0 0 640 800"><defs><linearGradient x1="50%" y1="0%" x2="50%" y2="100%" id="ccchaos-grad"><stop stop-color="hsl(206, 75%, 49%)" stop-opacity="1" offset="0%"></stop><stop stop-color="hsl(331, 90%, 56%)" stop-opacity="1" offset="100%"></stop></linearGradient></defs><g stroke-width="2" stroke="url(#ccchaos-grad)" fill="none" stroke-linecap="round"><path d="M300.27 99.87C309.68 100.81 319.08 103 328.45 106.31 337.84 110.15 347.23 114.8 356.62 120.04 366.04 125.29 375.49 130.8 384.97 136.37 394.53 141.5 404.16 146.49 413.85 151.24 423.66 155.34 433.57 159.17 443.58 162.77 453.72 165.76 463.98 168.64 474.3 171.51 484.75 174 495.25 176.66 505.73 179.6 516.25 182.46 526.66 185.76 536.86 189.57 546.94 193.52 556.66 198.09 565.89 203.27 574.75 208.72 582.94 214.81 590.29 221.49 597.04 228.46 602.78 235.99 607.37 244 611.19 252.25 613.76 260.92 615.04 269.92 615.53 279.09 614.76 288.53 612.79 298.14 610.26 307.86 606.74 317.69 602.38 327.58 597.93 337.52 593.01 347.46 587.82 357.35 583.12 367.26 578.57 377.07 574.35 386.75 571.14 396.43 568.6 405.72 566.77 414.6 566.1 423.49 566.08 431.97 566.64 440.06 568.14 448.17 569.97 455.91 571.96 463.32 574.48 470.8 576.82 478.03 578.84 485.06 580.9 492.27 582.34 499.4 583.03 506.54 583.4 514.03 582.84 521.68 581.31 529.57 579.26 537.98 576.19 546.78 572.13 556.01 567.51 565.84 561.96 576.15 555.56 586.91 548.69 598.13 541.09 609.65 532.85 621.29 524.29 633 515.22 644.47 505.75 655.4 496.1 665.75 486.16 675.06 476.01 683.02 465.79 689.71 455.44 694.65 445.03 697.62 434.61 699.02 424.17 698.42 413.75 695.88 403.35 692.17 392.99 687.01 382.7 680.76 372.44 674.44 362.24 667.93 352.13 661.71 342.04 656.78 332.02 652.99 322.1 650.65 312.18 650.45 302.57 651.89 293.27 654.78 283.95 659.37 274.93 664.77 266.2 670.52 257.43 676.75 248.93 682.44 240.71 687.17 232.43 691.15 224.4 693.5 216.62 694.06 208.75 693.19 201.11 690.36 193.69 685.66 186.15 679.56 178.8 671.87 171.65 662.85 164.35 652.95 157.22 642.18 150.26 630.85 143.14 619.26 136.18 607.52 129.38 595.83 122.42 584.39 115.63 573.22 109.04 562.43 102.31 552.11 95.79 542.21 89.52 532.7 83.18 523.68 77.12 514.97 71.39 506.51 65.67 498.42 60.32 490.45 55.41 482.51 50.57 474.8 46.22 467.01 42.4 459.07 38.74 451.24 35.64 443.18 33.16 434.85 30.89 426.55 29.25 417.94 28.27 409.01 27.52 400.08 27.44 390.81 28.04 381.21 28.83 371.62 30.26 361.94 32.28 352.22 34.42 342.53 37.09 332.83 40.24 323.2 43.41 313.62 47.01 304.15 50.98 294.85 54.89 285.67 59.12 276.73 63.63 268.11 68 259.66 72.62 251.59 77.46 243.98 82.11 236.6 86.96 229.72 92 223.41 96.84 217.34 101.88 211.84 107.1 206.94 112.14 202.21 117.39 198.02 122.86 194.34 128.18 190.67 133.75 187.39 139.57 184.41 145.29 181.19 151.3 178.1 157.58 175.05 163.81 171.51 170.35 167.83 177.18 163.97 183.99 159.46 191.12 154.7 198.53 149.71 205.95 144.13 213.66 138.44 221.65 132.73 229.64 126.77 237.9 121.09 246.42 115.86 254.93 110.88 263.69 106.71 272.67 103.53 281.65 101.04 290.85 99.79 300.26 99.87" stroke-dasharray="11 8" transform="rotate(0, 320, 400)" opacity="0.74"></path><path d="M302.81 110.46C311.92 111.37 321.04 113.49 330.18 116.67 339.34 120.39 348.52 124.89 357.73 129.99 366.98 135.16 376.27 140.6 385.62 146.15 395.03 151.34 404.53 156.42 414.09 161.31 423.75 165.61 433.5 169.66 443.32 173.49 453.25 176.71 463.25 179.81 473.28 182.83 483.39 185.45 493.49 188.16 503.51 191.06 513.52 193.8 523.36 196.89 532.93 200.39 542.33 203.94 551.32 208.03 559.79 212.65 567.87 217.46 575.26 222.85 581.83 228.8 587.81 234.99 592.82 241.71 596.75 248.91 599.96 256.33 602.03 264.17 602.91 272.37 603.09 280.73 602.14 289.39 600.1 298.26 597.6 307.25 594.22 316.39 590.08 325.62 585.9 334.92 581.3 344.26 576.46 353.59 572.08 362.94 567.82 372.26 563.84 381.49 560.79 390.72 558.31 399.63 556.46 408.21 555.66 416.8 555.44 425.07 555.74 433.03 556.91 441.02 558.38 448.75 560.03 456.24 562.19 463.82 564.22 471.25 566 478.58 567.88 486.11 569.23 493.66 569.93 501.28 570.42 509.24 570.08 517.42 568.88 525.86 567.25 534.76 564.7 544.02 561.23 553.67 557.29 563.78 552.46 574.27 546.82 585.06 540.75 596.15 533.96 607.36 526.53 618.53 518.78 629.58 510.5 640.23 501.8 650.21 492.89 659.51 483.65 667.7 474.16 674.53 464.58 680.13 454.82 684.05 444.94 686.14 435.04 686.83 425.08 685.71 415.1 682.87 405.12 679.06 395.15 674 385.22 668.03 375.32 662.09 365.45 656.03 355.65 650.28 345.87 645.74 336.15 642.25 326.51 640.06 316.87 639.83 307.52 641.08 298.47 643.64 289.4 647.79 280.61 652.71 272.09 657.99 263.53 663.82 255.23 669.23 247.19 673.84 239.08 677.9 231.21 680.56 223.57 681.63 215.84 681.48 208.31 679.54 200.99 675.87 193.56 670.9 186.3 664.38 179.22 656.52 172 647.74 164.95 638.01 158.05 627.57 151 616.75 144.11 605.61 137.38 594.35 130.51 583.17 123.81 572.11 117.29 561.28 110.67 550.79 104.27 540.62 98.11 530.79 91.89 521.35 85.96 512.21 80.36 503.34 74.78 494.79 69.57 486.42 64.79 478.15 60.1 470.1 55.88 462.06 52.18 453.96 48.65 445.99 45.66 437.88 43.28 429.6 41.1 421.36 39.55 412.9 38.64 404.22 37.95 395.54 37.91 386.61 38.54 377.44 39.37 368.27 40.81 359.08 42.83 349.92 44.96 340.78 47.61 331.69 50.72 322.72 53.87 313.8 57.43 305.03 61.35 296.49 65.22 288.05 69.4 279.88 73.86 272.06 78.19 264.39 82.76 257.11 87.53 250.29 92.14 243.65 96.94 237.5 101.92 231.88 106.7 226.44 111.67 221.51 116.81 217.1 121.78 212.79 126.94 208.93 132.29 205.49 137.5 201.97 142.93 198.75 148.59 195.74 154.15 192.44 159.95 189.19 166.02 185.93 172.02 182.16 178.3 178.24 184.85 174.12 191.37 169.39 198.18 164.44 205.27 159.3 212.35 153.64 219.71 147.92 227.34 142.24 234.96 136.37 242.86 130.81 251.01 125.74 259.16 120.94 267.56 116.94 276.2 113.9 284.83 111.55 293.7 110.37 302.8 110.46" stroke-dasharray="8 2" transform="rotate(4.04, 320, 400)" opacity="0.34"></path><path d="M306.04 121.06C314.85 121.94 323.71 123.97 332.6 127.03 341.51 130.61 350.48 134.96 359.48 139.91 368.53 144.96 377.64 150.31 386.8 155.82 396.03 161.03 405.33 166.18 414.69 171.19 424.14 175.66 433.65 179.92 443.21 183.96 452.85 187.44 462.51 190.76 472.17 193.98 481.86 196.76 491.48 199.58 500.98 202.52 510.42 205.23 519.63 208.21 528.53 211.51 537.23 214.78 545.48 218.49 553.17 222.66 560.49 226.95 567.11 231.75 572.91 237.06 578.17 242.54 582.5 248.53 585.82 254.99 588.5 261.62 590.12 268.68 590.64 276.11 590.58 283.69 589.48 291.58 587.42 299.73 584.97 307.97 581.73 316.42 577.83 325.01 573.92 333.65 569.63 342.39 565.12 351.18 561.05 359.98 557.08 368.81 553.33 377.62 550.43 386.42 548.03 395 546.17 403.32 545.25 411.65 544.85 419.76 544.91 427.64 545.77 435.57 546.92 443.32 548.22 450.93 550.04 458.65 551.77 466.31 553.29 473.94 554.96 481.78 556.19 489.7 556.87 497.75 557.4 506.11 557.22 514.7 556.28 523.56 555 532.79 552.88 542.34 549.93 552.19 546.58 562.39 542.4 572.84 537.46 583.46 532.13 594.21 526.1 604.94 519.44 615.46 512.48 625.72 504.98 635.46 497.03 644.42 488.88 652.64 480.35 659.73 471.54 665.46 462.62 670.03 453.48 673.02 444.19 674.31 434.85 674.38 425.4 672.84 415.9 669.78 406.4 665.93 396.86 661.02 387.33 655.35 377.81 649.8 368.31 644.19 358.85 638.88 349.41 634.72 340 631.51 330.66 629.47 321.31 629.21 312.24 630.28 303.43 632.54 294.61 636.27 286.05 640.72 277.73 645.55 269.39 650.95 261.27 656.05 253.39 660.51 245.46 664.58 237.73 667.45 230.22 668.93 222.62 669.39 215.21 668.24 207.98 665.5 200.65 661.58 193.48 656.18 186.47 649.46 179.35 641.83 172.36 633.17 165.53 623.72 158.58 613.8 151.77 603.41 145.11 592.76 138.35 582.04 131.74 571.29 125.33 560.65 118.84 550.2 112.56 539.97 106.52 529.99 100.45 520.32 94.67 510.91 89.21 501.74 83.79 492.86 78.74 484.17 74.1 475.63 69.57 467.29 65.5 459.02 61.93 450.78 58.53 442.65 55.67 434.48 53.39 426.22 51.32 418.02 49.85 409.69 49.01 401.22 48.38 392.76 48.39 384.13 49.05 375.36 49.9 366.58 51.34 357.86 53.35 349.24 55.47 340.63 58.09 332.13 61.17 323.8 64.28 315.51 67.79 307.43 71.65 299.61 75.47 291.87 79.6 284.43 83.99 277.35 88.27 270.39 92.79 263.83 97.51 257.71 102.06 251.73 106.81 246.21 111.73 241.16 116.46 236.23 121.37 231.75 126.45 227.72 131.35 223.7 136.43 220.05 141.69 216.74 146.8 213.28 152.12 210.03 157.64 206.92 163.05 203.48 168.69 200.03 174.57 196.53 180.37 192.52 186.43 188.35 192.74 183.99 199 179.07 205.54 173.96 212.34 168.69 219.12 163 226.16 157.28 233.48 151.65 240.77 145.9 248.34 140.49 256.16 135.59 263.97 130.98 272.04 127.16 280.35 124.28 288.66 122.05 297.22 120.95 306.03 121.06" stroke-dasharray="4 5" transform="rotate(8.08, 320, 400)" opacity="0.10"></path><path d="M309.83 131.65C318.35 132.5 326.94 134.45 335.57 137.38 344.23 140.81 352.95 145 361.73 149.78 370.53 154.7 379.41 159.94 388.35 165.38 397.33 170.58 406.39 175.77 415.49 180.87 424.65 185.49 433.86 189.93 443.08 194.18 452.35 197.89 461.61 201.45 470.82 204.89 480.02 207.88 489.11 210.86 498.03 213.9 506.85 216.66 515.41 219.61 523.61 222.81 531.58 225.91 539.09 229.36 546.03 233.2 552.59 237.07 558.47 241.4 563.56 246.18 568.14 251.07 571.85 256.42 574.61 262.22 576.81 268.14 578.03 274.49 578.27 281.21 577.99 288.05 576.8 295.22 574.73 302.68 572.36 310.21 569.29 317.99 565.62 325.95 561.98 333.96 558 342.11 553.82 350.38 550.05 358.65 546.34 367.01 542.83 375.43 540.07 383.84 537.74 392.1 535.88 400.2 534.88 408.3 534.31 416.27 534.15 424.11 534.73 431.99 535.57 439.79 536.55 447.53 538.03 455.38 539.46 463.23 540.72 471.13 542.17 479.23 543.24 487.44 543.85 495.82 544.38 504.46 544.3 513.32 543.55 522.43 542.54 531.82 540.78 541.47 538.28 551.33 535.43 561.41 531.83 571.62 527.52 581.86 522.87 592.11 517.54 602.19 511.61 611.92 505.39 621.31 498.64 630.06 491.42 637.96 484.01 645.1 476.2 651.11 468.08 655.79 459.84 659.41 451.34 661.56 442.65 662.16 433.9 661.71 425.01 659.82 416.03 656.62 407.02 652.8 397.95 648.08 388.86 642.73 379.77 637.57 370.66 632.39 361.57 627.51 352.48 623.72 343.41 620.77 334.38 618.87 325.35 618.6 316.55 619.5 308 621.48 299.44 624.81 291.11 628.8 283 633.18 274.86 638.16 266.94 642.92 259.22 647.18 251.45 651.19 243.87 654.18 236.48 655.99 229.02 656.95 221.72 656.48 214.59 654.57 207.37 651.61 200.3 647.26 193.37 641.64 186.34 635.13 179.45 627.58 172.71 619.18 165.85 610.24 159.14 600.72 152.58 590.83 145.93 580.74 139.45 570.5 133.16 560.23 126.81 550.04 120.67 539.95 114.78 530.03 108.87 520.31 103.25 510.79 97.96 501.5 92.71 492.42 87.82 483.53 83.35 474.81 78.99 466.27 75.07 457.83 71.65 449.48 68.4 441.24 65.67 433.02 63.5 424.79 61.54 416.62 60.16 408.41 59.38 400.13 58.83 391.88 58.88 383.54 59.56 375.13 60.42 366.72 61.87 358.44 63.85 350.32 65.95 342.21 68.53 334.27 71.56 326.54 74.62 318.85 78.08 311.4 81.88 304.23 85.64 297.13 89.71 290.36 94.03 283.94 98.25 277.62 102.71 271.68 107.36 266.16 111.87 260.72 116.56 255.7 121.42 251.11 126.11 246.57 130.96 242.42 135.97 238.64 140.82 234.81 145.83 231.27 151.01 227.98 156.04 224.49 161.26 221.14 166.67 217.87 171.95 214.24 177.46 210.57 183.17 206.81 188.8 202.56 194.67 198.16 200.78 193.57 206.82 188.49 213.12 183.25 219.67 177.9 226.17 172.2 232.95 166.51 239.97 160.97 246.97 155.37 254.24 150.13 261.75 145.42 269.25 141.01 277.02 137.37 285.03 134.65 293.03 132.55 301.3 131.52 309.82 131.65" stroke-dasharray="4 11" transform="rotate(12.12, 320, 400)" opacity="0.79"></path><path d="M314.02 142.24C322.25 143.06 330.56 144.92 338.93 147.72 347.31 151 355.77 155.01 364.28 159.62 372.82 164.38 381.43 169.5 390.08 174.84 398.78 180 407.53 185.2 416.31 190.35 425.12 195.08 433.96 199.68 442.78 204.11 451.62 208.05 460.41 211.84 469.11 215.5 477.77 218.72 486.29 221.9 494.58 225.09 502.75 227.97 510.63 230.98 518.12 234.15 525.37 237.18 532.15 240.48 538.35 244.09 544.19 247.68 549.36 251.65 553.78 256.01 559.32 262.84 565.37 278.68 565.8 287.63 565.37 293.81 564.11 300.32 562.07 307.14 559.79 314.03 556.89 321.18 553.47 328.55 550.09 335.96 546.41 343.57 542.54 351.34 539.06 359.12 535.61 367.04 532.32 375.08 529.71 383.12 527.46 391.09 525.61 398.98 524.53 406.89 523.82 414.73 523.47 422.52 523.79 430.36 524.33 438.19 525.02 446.02 526.18 453.96 527.31 461.96 528.3 470.05 529.52 478.31 530.42 486.71 530.93 495.28 531.42 504.06 531.37 513.03 530.75 522.2 529.94 531.58 528.47 541.12 526.34 550.79 523.93 560.56 520.83 570.35 517.07 580.05 513.01 589.63 508.33 598.93 503.07 607.79 497.55 616.21 491.5 623.94 484.99 630.78 478.29 636.87 471.18 641.84 463.74 645.56 456.17 648.31 448.33 649.71 440.25 649.72 432.12 648.84 423.8 646.7 415.35 643.42 406.88 639.68 398.31 635.18 389.67 630.16 381.03 625.39 372.35 620.64 363.64 616.19 354.95 612.74 346.23 610.04 337.53 608.28 328.83 607.99 320.33 608.74 312.05 610.45 303.75 613.4 295.66 616.96 287.76 620.91 279.84 625.45 272.11 629.86 264.56 633.88 256.97 637.77 249.54 640.82 242.28 642.85 234.96 644.2 227.79 644.3 220.77 643.11 213.66 641.02 206.7 637.63 199.87 633.04 192.96 627.62 186.17 621.17 179.53 613.83 172.79 605.93 166.2 597.37 159.76 588.34 153.25 579.03 146.91 569.45 140.76 559.74 134.57 549.98 128.6 540.23 122.87 530.55 117.15 520.99 111.71 511.55 106.6 502.29 101.54 493.18 96.84 484.24 92.54 475.46 88.36 466.82 84.61 458.32 81.35 449.93 78.25 441.63 75.65 433.41 73.61 425.25 71.76 417.13 70.47 409.04 69.77 400.96 69.27 392.9 69.36 384.83 70.06 376.77 70.94 368.71 72.38 360.84 74.33 353.18 76.4 345.52 78.94 338.09 81.91 330.91 84.92 323.75 88.31 316.87 92.03 310.29 95.73 303.75 99.72 297.55 103.97 291.7 108.12 285.9 112.51 280.47 117.09 275.43 121.55 270.43 126.18 265.8 130.97 261.54 135.61 257.27 140.41 253.33 145.36 249.68 150.15 245.93 155.1 242.41 160.2 239.06 165.16 235.48 170.29 231.97 175.6 228.49 180.79 224.65 186.17 220.73 191.75 216.72 197.23 212.25 202.94 207.63 208.86 202.85 214.71 197.64 220.8 192.31 227.13 186.93 233.41 181.25 239.93 175.64 246.7 170.22 253.44 164.78 260.43 159.74 267.67 155.23 274.88 151.03 282.36 147.59 290.08 145.02 297.8 143.05 305.77 142.1 314.01 142.24" stroke-dasharray="7 1" transform="rotate(16.16, 320, 400)" opacity="0.72"></path><path d="M318.45 152.83C326.39 153.62 334.41 155.39 342.49 158.05 350.58 161.17 358.74 165.01 366.96 169.42 375.19 174.01 383.49 178.98 391.82 184.2 400.17 189.29 408.57 194.46 416.96 199.62 425.38 204.44 433.79 209.16 442.15 213.74 450.51 217.89 458.78 221.89 466.92 225.78 475.01 229.24 482.91 232.63 490.55 236.01 498.06 239.06 505.24 242.18 512.03 245.41 518.57 248.45 524.63 251.7 530.13 255.19 537.54 260.47 548.31 272.66 551.46 279.66 553.16 287.1 552.05 303.84 549.43 313.07 547.26 319.37 544.55 325.96 541.36 332.8 538.25 339.67 534.86 346.77 531.29 354.08 528.08 361.4 524.89 368.91 521.82 376.61 519.35 384.3 517.19 392 515.35 399.68 514.21 407.38 513.38 415.09 512.85 422.81 512.93 430.58 513.22 438.39 513.63 446.26 514.48 454.23 515.32 462.29 516.05 470.47 517.02 478.77 517.73 487.23 518.11 495.84 518.52 504.59 518.48 513.51 517.93 522.56 517.26 531.73 516.01 540.99 514.17 550.28 512.11 559.57 509.43 568.78 506.15 577.79 502.63 586.59 498.52 595.02 493.86 602.92 488.98 610.36 483.59 617.05 477.74 622.85 471.72 627.93 465.29 631.94 458.51 634.77 451.6 636.75 444.4 637.5 436.95 637.02 429.42 635.8 421.69 633.49 413.8 630.2 405.87 626.57 397.81 622.32 389.65 617.66 381.49 613.28 373.25 608.95 364.96 604.9 356.67 601.77 348.34 599.32 339.98 597.69 331.63 597.38 323.44 597.99 315.44 599.45 307.43 602.04 299.59 605.2 291.92 608.71 284.23 612.83 276.7 616.88 269.33 620.63 261.93 624.34 254.67 627.37 247.55 629.55 240.39 631.19 233.36 631.75 226.46 631.17 219.5 629.83 212.66 627.31 205.95 623.67 199.17 619.27 192.51 613.87 186 607.6 179.41 600.75 172.96 593.2 166.66 585.11 160.32 576.68 154.14 567.89 148.16 558.87 142.15 549.73 136.36 540.48 130.82 531.22 125.3 521.99 120.06 512.82 115.14 503.75 110.29 494.78 105.79 485.94 101.68 477.24 97.69 468.65 94.12 460.18 91.02 451.84 88.09 443.59 85.64 435.43 83.71 427.37 81.98 419.36 80.79 411.42 80.16 403.55 79.72 395.7 79.86 387.89 80.57 380.16 81.45 372.42 82.88 364.93 84.79 357.69 86.83 350.45 89.32 343.47 92.21 336.77 95.16 330.08 98.47 323.68 102.11 317.61 105.73 311.55 109.64 305.81 113.79 300.42 117.88 295.05 122.19 290.02 126.69 285.34 131.08 280.65 135.65 276.29 140.37 272.24 144.96 268.13 149.7 264.29 154.58 260.68 159.31 256.92 164.2 253.33 169.23 249.86 174.13 246.12 179.19 242.42 184.4 238.71 189.5 234.64 194.78 230.49 200.23 226.23 205.59 221.56 211.15 216.76 216.91 211.83 222.6 206.53 228.51 201.16 234.63 195.77 240.71 190.16 247.01 184.66 253.55 179.39 260.04 174.15 266.78 169.31 273.76 165.02 280.72 161.04 287.92 157.8 295.37 155.4 302.8 153.56 310.49 152.68 318.44 152.83" stroke-dasharray="8 1" transform="rotate(20.200000000000003, 320, 400)" opacity="0.81"></path><path d="M322.94 163.42C330.58 164.18 338.3 165.86 346.07 168.38 353.85 171.33 361.69 174.98 369.58 179.2 377.47 183.6 385.41 188.4 393.37 193.46 401.35 198.45 409.34 203.56 417.3 208.7 425.27 213.56 433.21 218.36 441.06 223.06 448.89 227.38 456.61 231.58 464.17 235.66 471.64 239.36 478.91 242.98 485.89 246.55 492.73 249.8 499.23 253.09 505.32 256.44 513.86 261.2 527.85 271.44 533.05 277.1 537.02 282.99 540.83 296.36 540.66 303.88 540.02 309.02 538.73 314.49 536.82 320.28 534.78 326.08 532.26 332.18 529.31 338.56 526.46 344.94 523.35 351.59 520.07 358.49 517.12 365.39 514.18 372.53 511.31 379.89 508.99 387.26 506.91 394.68 505.1 402.15 503.91 409.64 502.98 417.19 502.3 424.8 502.17 432.45 502.21 440.19 502.37 448.01 502.94 455.91 503.5 463.93 503.98 472.06 504.7 480.29 505.21 488.66 505.45 497.14 505.74 505.72 505.66 514.41 505.14 523.16 504.55 531.96 503.46 540.77 501.85 549.51 500.07 558.18 497.75 566.67 494.87 574.88 491.81 582.82 488.2 590.32 484.08 597.24 479.77 603.67 474.98 609.36 469.74 614.16 464.35 618.29 458.55 621.42 452.4 623.47 446.14 624.77 439.56 624.98 432.71 624.11 425.79 622.63 418.65 620.22 411.31 616.98 403.93 613.52 396.4 609.54 388.74 605.23 381.07 601.24 373.28 597.31 365.42 593.64 357.56 590.83 349.62 588.6 341.64 587.1 333.65 586.78 325.8 587.26 318.09 588.49 310.38 590.75 302.81 593.51 295.39 596.62 287.94 600.31 280.63 603.98 273.46 607.44 266.26 610.94 259.19 613.88 252.24 616.12 245.25 617.97 238.38 618.88 231.63 618.81 224.83 618.09 218.15 616.33 211.58 613.55 204.96 610.09 198.46 605.69 192.1 600.43 185.68 594.61 179.4 588.09 173.28 580.98 167.12 573.5 161.13 565.59 155.34 557.37 149.55 548.96 143.97 540.37 138.64 531.68 133.34 522.95 128.32 514.2 123.61 505.5 118.97 496.83 114.69 488.24 110.78 479.76 106.99 471.35 103.62 463.04 100.69 454.87 97.92 446.75 95.62 438.74 93.82 430.86 92.21 423.01 91.11 415.26 90.55 407.62 90.18 399.99 90.35 392.46 91.07 385.03 91.96 377.61 93.37 370.46 95.24 363.6 97.23 356.73 99.65 350.15 102.47 343.86 105.34 337.57 108.57 331.58 112.11 325.91 115.64 320.23 119.46 314.87 123.52 309.83 127.52 304.77 131.74 300.03 136.15 295.59 140.46 291.11 144.95 286.91 149.59 282.96 154.12 278.92 158.79 275.09 163.6 271.43 168.28 267.6 173.1 263.88 178.06 260.23 182.89 256.31 187.87 252.4 193 248.45 198.01 244.16 203.19 239.79 208.54 235.32 213.79 230.48 219.22 225.53 224.84 220.5 230.38 215.16 236.12 209.79 242.06 204.44 247.95 198.94 254.06 193.59 260.37 188.5 266.65 183.47 273.16 178.87 279.89 174.8 286.6 171.05 293.54 168.01 300.71 165.77 307.87 164.06 315.28 163.26 322.93 163.42" stroke-dasharray="11 8" transform="rotate(24.24, 320, 400)" opacity="0.81"></path><path d="M327.31 174.02C334.65 174.74 342.05 176.32 349.49 178.7 356.94 181.49 364.43 184.94 371.95 188.95 379.47 193.15 387.03 197.75 394.57 202.64 402.13 207.5 409.67 212.5 417.17 217.58 424.66 222.44 432.08 227.28 439.39 232.06 446.67 236.51 453.8 240.87 460.75 245.13 467.6 249.04 474.23 252.88 480.55 256.66 486.73 260.12 492.56 263.6 497.98 267.1 505.54 272.05 517.73 282.37 522.14 287.91 525.46 293.57 528.4 306.21 528.02 313.25 526.7 320.58 521.19 336.76 517.32 345.58 514.71 351.55 511.87 357.81 508.88 364.33 506.18 370.85 503.47 377.64 500.8 384.68 498.62 391.73 496.63 398.88 494.86 406.12 493.64 413.37 492.62 420.72 491.81 428.16 491.5 435.63 491.33 443.22 491.25 450.9 491.55 458.64 491.85 466.49 492.09 474.45 492.57 482.47 492.87 490.6 492.94 498.81 493.11 507.05 492.95 515.35 492.42 523.65 491.87 531.93 490.87 540.14 489.43 548.21 487.87 556.14 485.83 563.83 483.3 571.16 480.61 578.19 477.44 584.73 473.79 590.66 469.98 596.12 465.73 600.83 461.05 604.71 453.63 609.15 436.81 612.29 427.56 611 421.23 609.35 414.66 606.91 407.87 603.77 401.05 600.5 394.04 596.82 386.88 592.88 379.7 589.26 372.39 585.72 364.97 582.42 357.55 579.9 350.03 577.89 342.43 576.51 334.83 576.18 327.33 576.54 319.94 577.56 312.55 579.51 305.27 581.9 298.11 584.62 290.93 587.9 283.87 591.19 276.92 594.33 269.95 597.58 263.08 600.39 256.33 602.61 249.54 604.57 242.86 605.73 236.28 606.05 229.67 605.86 223.17 604.74 216.78 602.71 210.35 600.09 204.03 596.6 197.85 592.29 191.63 587.48 185.55 581.95 179.63 575.82 173.69 569.32 167.92 562.34 162.34 554.99 156.78 547.42 151.43 539.59 146.33 531.59 141.27 523.5 136.48 515.31 132 507.11 127.6 498.9 123.54 490.7 119.85 482.58 116.27 474.48 113.1 466.46 110.35 458.55 107.75 450.68 105.61 442.91 103.94 435.27 102.45 427.65 101.45 420.15 100.96 412.77 100.65 405.4 100.85 398.15 101.58 391.03 102.47 383.92 103.84 377.09 105.67 370.56 107.61 364.03 109.96 357.79 112.69 351.84 115.47 345.89 118.6 340.23 122.04 334.86 125.47 329.49 129.18 324.4 133.13 319.6 137.03 314.77 141.15 310.21 145.46 305.92 149.68 301.55 154.08 297.41 158.64 293.48 163.08 289.43 167.68 285.54 172.4 281.77 177.02 277.81 181.77 273.92 186.64 270.08 191.41 265.96 196.31 261.83 201.35 257.66 206.29 253.17 211.37 248.61 216.61 243.96 221.75 239 227.07 233.96 232.54 228.88 237.95 223.54 243.54 218.21 249.31 212.96 255.03 207.61 260.95 202.44 267.06 197.55 273.13 192.76 279.41 188.4 285.9 184.57 292.37 181.06 299.05 178.23 305.95 176.15 312.84 174.57 319.96 173.84 327.3 174.01" stroke-dasharray="9 1" transform="rotate(28.28, 320, 400)" opacity="0.62"></path><path d="M331.39 184.61C338.41 185.29 345.47 186.79 352.56 189.02 359.65 191.64 366.77 194.89 373.9 198.67 381.03 202.66 388.16 207.04 395.27 211.74 402.37 216.43 409.44 221.31 416.43 226.29 423.41 231.1 430.29 235.93 437.05 240.74 443.75 245.28 450.29 249.76 456.62 254.16 462.85 258.25 468.84 262.28 474.52 266.25 480.06 269.93 485.24 273.59 490.02 277.27 496.67 282.46 507.2 293.03 510.93 298.57 513.68 304.14 515.89 316.34 515.37 323.03 514.05 329.96 508.92 345.2 505.39 353.52 503.02 359.15 500.44 365.06 497.71 371.25 495.26 377.43 492.77 383.89 490.3 390.63 488.26 397.37 486.36 404.23 484.64 411.2 483.39 418.19 482.31 425.29 481.39 432.49 480.91 439.72 480.55 447.06 480.26 454.5 480.33 461.98 480.39 469.55 480.39 477.21 480.64 484.89 480.73 492.64 480.64 500.43 480.65 508.2 480.4 515.97 479.83 523.68 479.27 531.32 478.33 538.83 477 546.13 475.6 553.25 473.77 560.06 471.51 566.48 467.74 575.38 457.83 589.59 451.75 594.53 445.12 597.85 429.96 599.43 421.54 597.76 415.78 596.01 409.75 593.59 403.5 590.61 397.22 587.56 390.73 584.18 384.07 580.6 377.39 577.35 370.56 574.18 363.59 571.23 356.62 568.99 349.52 567.18 342.33 565.92 335.13 565.58 327.99 565.84 320.95 566.66 313.9 568.32 306.93 570.37 300.05 572.71 293.17 575.59 286.37 578.5 279.67 581.32 272.95 584.29 266.32 586.92 259.79 589.07 253.23 591.06 246.77 592.38 240.4 592.99 234.01 593.21 227.72 592.62 221.54 591.22 215.33 589.34 209.23 586.65 203.26 583.21 197.27 579.32 191.42 574.74 185.73 569.57 180.03 564.03 174.5 558 169.17 551.55 163.86 544.87 158.76 537.87 153.91 530.65 149.11 523.29 144.58 515.79 140.34 508.2 136.19 500.56 132.37 492.89 128.89 485.24 125.54 477.58 122.57 469.96 120.01 462.43 117.59 454.9 115.6 447.46 114.07 440.14 112.7 432.82 111.8 425.62 111.37 418.54 111.12 411.47 111.35 404.52 112.08 397.71 112.97 390.9 114.31 384.38 116.08 378.15 117.96 371.91 120.23 365.96 122.86 360.3 125.56 354.62 128.58 349.21 131.89 344.09 135.22 338.93 138.81 334.04 142.63 329.4 146.42 324.71 150.43 320.25 154.62 316.01 158.74 311.68 163.03 307.54 167.48 303.55 171.84 299.43 176.34 295.43 180.97 291.52 185.5 287.41 190.17 283.34 194.95 279.29 199.64 274.99 204.46 270.66 209.4 266.29 214.25 261.64 219.24 256.93 224.36 252.16 229.4 247.13 234.6 242.05 239.94 236.96 245.22 231.69 250.66 226.46 256.26 221.34 261.82 216.17 267.55 211.22 273.46 206.56 279.33 202.03 285.4 197.93 291.65 194.34 297.88 191.07 304.3 188.45 310.93 186.53 317.54 185.08 324.36 184.43 331.38 184.61" stroke-dasharray="5 9" transform="rotate(32.32, 320, 400)" opacity="0.80"></path><path d="M335.02 195.2C341.7 195.85 348.41 197.25 355.13 199.33 361.85 201.78 368.57 204.82 375.28 208.38 381.98 212.14 388.67 216.29 395.31 220.76 401.94 225.27 408.51 229.97 414.98 234.82 421.43 239.54 427.76 244.32 433.94 249.12 440.06 253.69 446.01 258.23 451.73 262.73 457.35 266.96 462.72 271.14 467.78 275.27 474.99 281.07 487.27 292.3 492.19 297.85 496.31 303.23 501.7 314.44 502.92 320.38 503.32 326.42 501.43 339.55 499.28 346.7 496.71 354.08 490.21 370.13 486.58 378.82 484.35 384.69 482.07 390.85 479.79 397.27 477.89 403.7 476.09 410.26 474.41 416.93 473.16 423.61 472.03 430.41 471.02 437.31 470.41 444.23 469.88 451.24 469.41 458.34 469.25 465.45 469.09 472.64 468.89 479.87 468.91 487.1 468.8 494.36 468.54 501.6 468.4 508.79 468.03 515.93 467.39 522.95 466.79 529.86 465.87 536.59 464.61 543.06 462.48 552.29 456.22 568.28 452.07 574.69 447.38 579.87 436.02 586.01 429.4 586.86 422.36 586.33 406.74 581.46 398.26 577.49 392.49 574.69 386.51 571.62 380.35 568.4 374.16 565.51 367.8 562.7 361.29 560.08 354.77 558.09 348.12 556.48 341.33 555.32 334.55 554.99 327.8 555.16 321.12 555.8 314.43 557.19 307.79 558.92 301.23 560.9 294.66 563.4 288.16 565.94 281.73 568.42 275.29 571.1 268.93 573.5 262.65 575.53 256.36 577.47 250.14 578.88 244.02 579.68 237.88 580.19 231.83 580.02 225.89 579.14 219.93 577.87 214.08 575.88 208.36 573.22 202.63 570.15 197.04 566.45 191.6 562.17 186.18 557.56 180.92 552.45 175.85 546.91 170.82 541.12 166 534.99 161.41 528.59 156.89 522.04 152.62 515.29 148.64 508.4 144.75 501.43 141.17 494.38 137.93 487.29 134.81 480.18 132.05 473.06 129.67 465.99 127.44 458.91 125.61 451.88 124.21 444.94 122.96 438 122.15 431.15 121.8 424.41 121.6 417.68 121.86 411.05 122.59 404.55 123.46 398.06 124.77 391.83 126.48 385.88 128.29 379.92 130.47 374.22 133 368.79 135.59 363.34 138.49 358.13 141.68 353.17 144.88 348.18 148.34 343.41 152.03 338.86 155.7 334.25 159.57 329.83 163.63 325.58 167.63 321.24 171.8 317.04 176.13 312.97 180.38 308.75 184.77 304.62 189.29 300.54 193.73 296.28 198.29 292.04 202.97 287.8 207.56 283.34 212.28 278.85 217.12 274.33 221.87 269.57 226.75 264.76 231.75 259.92 236.69 254.88 241.76 249.82 246.96 244.79 252.1 239.62 257.39 234.54 262.82 229.6 268.22 224.65 273.76 219.93 279.47 215.53 285.14 211.28 290.98 207.44 296.99 204.12 302.98 201.09 309.14 198.67 315.48 196.92 321.81 195.6 328.32 195.01 335.01 195.2" stroke-dasharray="1 1" transform="rotate(36.36, 320, 400)" opacity="0.35"></path><path d="M338.05 205.79C344.38 206.4 350.72 207.71 357.05 209.64 363.37 211.92 369.68 214.75 375.95 218.07 388.48 225.27 400.82 233.83 412.73 243.19 424.52 252.27 435.73 261.57 446.07 270.84 456.05 279.24 464.91 287.54 472.35 295.73 479.18 303.12 484.36 310.66 487.7 318.51 490.33 325.86 491.12 333.82 490.07 342.47 488.65 350.91 485.78 360.24 481.69 370.5 479.79 375.61 477.7 380.96 475.47 386.56 473.46 392.16 471.38 398.01 469.29 404.13 467.51 410.24 465.81 416.47 464.2 422.81 462.95 429.15 461.79 435.59 460.72 442.12 459.59 455.19 458.61 468.57 457.58 482.01 457.4 495.35 456.67 508.55 455.16 521.18 453.86 533.32 451.4 544.41 447.67 553.91 443.75 562.27 438.42 568.48 431.75 572.14 424.81 574.32 416.58 573.9 407.22 570.99 397.67 567.39 387.13 562.26 375.77 556.29 370.07 553.75 364.18 551.27 358.13 548.96 352.06 547.22 345.85 545.79 339.49 544.73 333.13 544.4 326.79 544.48 320.47 544.97 314.16 546.11 307.89 547.54 301.66 549.2 289.2 553.85 276.92 558.36 264.94 562.04 252.93 565.63 241.19 567.23 229.86 566.56 218.52 564.68 207.61 560.29 197.29 553.65 187.05 545.84 177.5 536.21 168.85 525.24 160.45 513.64 153.08 501.2 146.97 488.36 141.31 475.33 137.05 462.17 134.36 449.18 133.24 442.68 132.52 436.23 132.23 429.87 132.09 423.51 132.37 417.23 133.1 411.06 133.95 404.88 135.21 398.95 136.85 393.26 138.59 387.56 140.68 382.09 143.1 376.85 148.1 366.31 154.25 356.59 161.32 347.64 168.35 338.43 176.15 329.76 184.56 321.52 192.74 312.75 201.48 304.13 210.66 295.56 219.55 286.22 228.93 276.76 238.72 267.27 248.28 257.13 258.35 247.17 268.9 237.75 279.3 228.42 290.28 220.29 301.8 213.9 307.54 211.11 313.44 208.9 319.48 207.32 325.51 206.12 331.7 205.6 338.04 205.79" stroke-dasharray="5 5" transform="rotate(40.400000000000006, 320, 400)" opacity="0.16"></path><path d="M340.36 216.38C352.3 217.9 364.17 221.83 375.81 227.75 387.44 234.47 398.78 242.52 409.63 251.43 420.35 260.2 430.44 269.32 439.63 278.5 448.5 287.01 456.28 295.48 462.71 303.88 468.62 311.56 473.02 319.36 475.77 327.36 477.95 334.89 478.51 342.88 477.47 351.42 476.17 359.73 473.59 368.79 469.94 378.64 466.68 388.42 462.88 399.09 458.78 410.66 455.8 422.24 453 434.21 450.46 446.4 449.11 458.59 447.83 470.95 446.48 483.21 445.91 495.31 444.86 507.1 443.17 518.17 441.73 528.72 439.29 538.12 435.78 545.95 432.17 552.75 427.33 557.55 421.29 560.06 415.04 561.4 407.62 560.52 399.13 557.55 390.49 554.17 380.88 549.55 370.45 544.27 359.95 540.2 348.72 536.66 336.87 534.14 325.02 534.11 313.15 535.36 301.41 537.59 289.68 541.52 278.07 545.39 266.71 548.62 255.36 551.98 244.25 553.72 233.52 553.57 222.82 552.52 212.53 549.3 202.82 544.04 193.23 537.8 184.31 529.81 176.25 520.45 168.46 510.49 161.65 499.58 156.03 488.09 150.83 476.39 146.95 464.39 144.54 452.39 142.66 440.35 142.31 428.41 143.6 416.73 145.38 405.05 148.64 394.16 153.16 384.06 157.92 373.88 163.77 364.36 170.5 355.45 177.23 346.29 184.72 337.53 192.79 329.09 200.69 320.17 209.14 311.34 218.01 302.54 226.66 293.12 235.75 283.64 245.23 274.22 254.52 264.35 264.26 254.77 274.42 245.82 284.45 237.08 294.98 229.54 305.98 223.69 316.93 218.91 328.4 216.36 340.34 216.38" stroke-dasharray="6 10" transform="rotate(44.44, 320, 400)" opacity="0.32"></path><path d="M341.85 226.97C353.04 228.38 364.07 231.98 374.8 237.43 385.5 243.64 395.85 251.15 405.65 259.54 415.33 267.92 424.34 276.74 432.46 285.73 440.29 294.22 447.07 302.75 452.6 311.23 457.7 319.13 461.44 327.12 463.69 335.23 465.52 342.92 465.92 350.96 464.92 359.42 463.76 367.65 461.48 376.49 458.24 385.96 455.39 395.36 452 405.51 448.28 416.4 445.51 427.3 442.81 438.45 440.26 449.69 438.73 460.92 437.2 472.15 435.58 483.14 434.66 493.94 433.33 504.27 431.44 513.78 429.84 522.78 427.4 530.6 424.03 536.89 418.42 544.11 401.67 547.62 390.61 544.13 382.79 541.04 374.05 536.96 364.5 532.34 354.9 528.85 344.55 525.79 333.57 523.55 322.6 523.44 311.54 524.37 300.56 526.09 289.6 529.34 278.72 532.58 268.05 535.33 257.4 538.36 246.97 540.1 236.91 540.27 226.9 539.84 217.29 537.54 208.25 533.45 199.34 528.57 191.08 522.05 183.64 514.2 176.47 505.8 170.23 496.38 165.11 486.27 160.38 475.93 156.87 465.15 154.73 454.19 153.07 443.18 152.83 432.11 154.11 421.14 155.83 410.17 158.92 399.81 163.19 390.05 167.69 380.23 173.22 370.9 179.59 362.04 185.98 352.95 193.11 344.14 200.81 335.56 208.39 326.58 216.5 317.64 225.02 308.76 233.36 299.39 242.13 290.03 251.25 280.83 260.22 271.34 269.59 262.23 279.32 253.84 288.95 245.73 299.01 238.81 309.44 233.49 319.84 229.18 330.66 226.91 341.85 226.97" stroke-dasharray="2 6" transform="rotate(48.48, 320, 400)" opacity="0.74"></path><path d="M342.48 237.57C352.88 238.85 363.05 242.14 372.86 247.11 382.64 252.8 392.01 259.74 400.8 267.56 409.47 275.48 417.46 283.9 424.58 292.58 431.46 300.91 437.34 309.35 442.08 317.81 446.47 325.8 449.64 333.87 451.5 342.03 453.04 349.83 453.34 357.88 452.42 366.23 451.43 374.38 449.45 382.99 446.61 392.08 444.13 401.11 441.13 410.72 437.77 420.9 435.21 431.09 432.63 441.37 430.11 451.61 428.44 461.81 426.72 471.86 424.88 481.54 423.66 491.02 422.07 499.92 420 507.93 417 518.67 407.19 532.36 400.05 534.56 394.9 534.81 388.8 533.49 381.8 530.76 374.72 528.02 366.78 524.47 358.07 520.5 349.32 517.56 339.84 514.94 329.74 512.96 319.64 512.79 309.42 513.42 299.24 514.69 289.08 517.31 278.97 519.93 269.04 522.19 259.15 524.83 249.46 526.43 240.11 526.77 230.84 526.74 221.96 525.14 213.61 521.98 205.42 518.23 197.84 513 191.05 506.49 184.51 499.53 178.84 491.52 174.22 482.74 169.96 473.74 166.83 464.18 164.95 454.29 163.51 444.35 163.36 434.2 164.61 423.97 166.27 413.74 169.18 403.92 173.18 394.54 177.4 385.11 182.6 376.01 188.58 367.24 194.62 358.29 201.35 349.51 208.64 340.9 215.85 331.97 223.57 323.08 231.69 314.25 239.68 305.09 248.07 295.99 256.78 287.14 265.37 278.14 274.32 269.61 283.58 261.82 292.76 254.39 302.29 248.1 312.12 243.32 321.93 239.46 332.07 237.46 342.48 237.57" stroke-dasharray="7 10" transform="rotate(52.52, 320, 400)" opacity="0.40"></path><path d="M342.21 248.16C351.8 249.33 361.11 252.3 370.01 256.8 378.88 261.96 387.29 268.3 395.11 275.51 402.83 282.88 409.87 290.81 416.08 299.06 422.08 307.11 427.17 315.33 431.22 323.61 435 331.55 437.7 339.58 439.25 347.68 440.58 355.48 440.83 363.47 440.02 371.66 439.19 379.68 437.5 388.03 435.05 396.71 432.91 405.34 430.28 414.4 427.26 423.84 424.92 433.27 422.47 442.66 420 451.86 418.25 461.01 416.38 469.88 414.37 478.27 412.91 486.47 411.1 494 408.89 500.63 405.7 509.43 396.18 520.01 389.53 521.33 384.8 521.29 379.24 519.96 372.87 517.49 366.45 515.13 359.25 512.12 351.33 508.76 343.38 506.32 334.75 504.11 325.52 502.36 316.28 502.15 306.92 502.53 297.56 503.4 288.23 505.44 278.92 507.48 269.78 509.24 260.69 511.43 251.78 512.81 243.2 513.18 234.71 513.36 226.58 512.25 218.97 509.82 211.51 506.96 204.64 502.79 198.5 497.45 192.6 491.75 187.51 485.02 183.39 477.48 179.59 469.75 176.82 461.38 175.2 452.56 173.96 443.68 173.9 434.45 175.12 424.99 176.69 415.54 179.42 406.31 183.14 397.36 187.08 388.36 191.91 379.57 197.48 370.98 203.13 362.26 209.44 353.64 216.27 345.13 223.07 336.39 230.36 327.69 238.02 319.09 245.6 310.27 253.55 301.59 261.79 293.21 269.95 284.81 278.43 276.92 287.16 269.81 295.84 263.07 304.81 257.42 314 253.18 323.18 249.76 332.61 248.01 342.21 248.16" stroke-dasharray="1 1" transform="rotate(56.56, 320, 400)" opacity="0.85"></path><path d="M341.05 258.75C349.82 259.81 358.26 262.46 366.26 266.49 374.24 271.12 381.74 276.84 388.65 283.41 395.47 290.17 401.63 297.53 407.01 305.25 412.24 312.88 416.63 320.74 420.09 328.71 423.35 336.45 425.66 344.29 426.97 352.19 428.14 359.87 428.38 367.69 427.7 375.62 427.05 383.43 425.64 391.45 423.54 399.67 421.73 407.86 419.45 416.31 416.76 424.97 414.63 433.64 412.33 442.11 409.94 450.27 408.14 458.39 406.18 466.11 404.06 473.27 401.42 483.42 394.75 499.1 390.33 504.03 385.45 507.18 372.31 507.11 363.97 504.34 358.15 502.38 351.62 499.89 344.46 497.1 337.26 495.13 329.45 493.3 321.07 491.77 312.7 491.52 304.19 491.69 295.68 492.2 287.19 493.72 278.72 495.22 270.41 496.5 262.14 498.23 254.05 499.32 246.27 499.6 238.58 499.84 231.23 499.03 224.38 497.11 217.67 494.93 211.51 491.61 206.03 487.24 200.77 482.59 196.25 476.99 192.62 470.58 189.27 464 186.85 456.74 185.48 448.94 184.43 441.1 184.45 432.79 185.63 424.14 187.11 415.48 189.64 406.89 193.08 398.44 196.71 389.96 201.17 381.56 206.31 373.28 211.54 364.9 217.39 356.57 223.73 348.32 230.08 339.93 236.88 331.57 244.04 323.36 251.14 315.04 258.6 306.9 266.32 299.12 273.99 291.4 281.94 284.22 290.09 277.81 298.21 271.79 306.57 266.79 315.08 263.07 323.59 260.07 332.28 258.57 341.05 258.75" stroke-dasharray="4 8" transform="rotate(60.599999999999994, 320, 400)" opacity="0.83"></path><path d="M339.05 269.34C346.99 270.29 354.57 272.64 361.7 276.2 368.81 280.29 375.44 285.39 381.5 291.28 387.48 297.4 392.85 304.11 397.5 311.21 402.03 318.3 405.81 325.67 408.77 333.18 411.59 340.56 413.59 348.07 414.73 355.62 415.78 363.04 416.03 370.55 415.5 378.12 415.01 385.6 413.87 393.21 412.1 400.9 410.59 408.57 408.62 416.37 406.25 424.24 404.33 432.11 402.19 439.67 399.92 446.83 398.11 453.95 396.12 460.59 393.94 466.63 391.11 475.14 384.2 487.85 379.83 491.64 375.11 494.04 362.87 493.68 355.26 491.36 349.98 489.8 344.09 487.81 337.63 485.55 331.15 483.99 324.12 482.5 316.59 481.18 309.05 480.9 301.4 480.89 293.74 481.11 286.11 482.17 278.5 483.18 271.03 484.01 263.61 485.27 256.36 486.03 249.39 486.14 242.52 486.33 235.98 485.65 229.89 484.08 223.93 482.37 218.48 479.69 213.66 476.08 209.03 472.3 205.08 467.65 201.92 462.21 199 456.66 196.93 450.41 195.79 443.58 194.92 436.7 195.01 429.31 196.13 421.47 197.52 413.63 199.84 405.73 202.98 397.86 206.3 389.97 210.37 382.08 215.07 374.23 219.85 366.33 225.21 358.43 231.04 350.61 236.88 342.71 243.16 334.87 249.76 327.2 256.34 319.49 263.25 312.02 270.39 304.93 277.51 297.97 284.87 291.55 292.39 285.87 299.9 280.56 307.6 276.2 315.4 272.99 323.2 270.41 331.11 269.14 339.05 269.34" stroke-dasharray="10 1" transform="rotate(64.64, 320, 400)" opacity="0.98"></path><path d="M336.3 279.93C343.4 280.77 350.13 282.82 356.42 285.93 362.69 289.5 368.5 293.97 373.77 299.17 378.98 304.6 383.62 310.6 387.63 317 391.54 323.46 394.8 330.21 397.34 337.14 399.79 344.01 401.53 351.03 402.54 358.1 403.51 365.09 403.8 372.16 403.41 379.24 403.08 386.27 402.18 393.36 400.73 400.45 399.49 407.52 397.82 414.63 395.74 421.68 394.03 428.74 392.07 435.41 389.93 441.61 387.17 450.61 381.07 465.59 377.57 471.24 369.63 478.29 353.82 480.39 346.89 478.56 342.1 477.4 336.8 475.87 331.01 474.1 325.22 472.91 318.94 471.71 312.24 470.59 305.53 470.29 298.72 470.14 291.92 470.11 285.14 470.77 278.39 471.36 271.78 471.77 265.21 472.59 258.81 473 252.68 472.91 243.75 472.62 227.98 468.38 221.42 464.26 215.71 459.2 207.93 445.3 206.13 436.69 205.43 430.72 205.58 424.2 206.64 417.19 207.92 410.17 210.03 403.02 212.87 395.81 215.86 388.6 219.53 381.32 223.76 374.04 228.08 366.74 232.93 359.43 238.21 352.19 243.51 344.92 249.22 337.73 255.23 330.74 261.24 323.77 267.54 317.05 274.05 310.74 280.56 304.58 287.28 298.95 294.13 294.01 300.98 289.42 307.97 285.68 315.02 282.96 322.07 280.76 329.2 279.71 336.3 279.93" stroke-dasharray="3 0" transform="rotate(68.68, 320, 400)" opacity="0.42"></path><path d="M332.89 290.53C345.42 292.45 356.46 298.35 365.59 307.09 374.56 316.71 381.44 328.28 385.87 340.72 390.11 353.17 391.99 366.2 391.45 379.17 391.18 392.05 389.07 405.02 385.24 417.49 382.51 429.96 378.74 440.67 374.24 449.14 370.73 457.36 366.04 463.02 360.19 465.79 354.73 468.3 347.64 468.25 338.98 465.98 330.36 464.69 320 462.51 308.2 460 296.39 460.05 284.34 460.1 272.78 459.82 261.38 460.95 250.69 460.44 241.44 457.84 232.59 455.28 225.48 450.05 220.78 442.27 216.76 434.32 215.37 423.97 217.14 411.61 219.64 399.25 224.98 386.13 232.41 372.98 240.16 359.82 249.75 346.6 260.48 334.13 271.27 321.92 283.1 310.92 295.36 302.26 307.64 294.81 320.37 290.56 332.89 290.53" stroke-dasharray="3 2" transform="rotate(72.72, 320, 400)" opacity="0.58"></path><path d="M328.97 301.12C339.83 302.73 349.32 307.68 357.1 315.08 364.78 323.26 370.65 333.23 374.45 344.09 378.16 355.07 379.91 366.66 379.63 378.18 379.6 389.69 377.96 401.16 374.73 411.99 372.34 422.81 368.87 431.88 364.65 438.9 361.17 445.76 356.63 450.43 351.11 452.72 345.93 454.97 339.41 455.2 331.66 453.65 323.96 452.96 314.86 451.44 304.62 449.4 294.38 449.31 284.02 448.95 274.16 448.17 264.43 448.55 255.36 447.61 247.58 445.03 240.14 442.64 234.21 438.11 230.37 431.45 227.05 424.72 226 415.87 227.65 405.16 229.87 394.45 234.53 382.96 241.01 371.38 247.77 359.86 256.16 348.32 265.55 337.55 275.04 327.11 285.45 317.83 296.2 310.65 306.99 304.48 318.11 301.04 328.97 301.12" stroke-dasharray="9 5" transform="rotate(76.76, 320, 400)" opacity="0.70"></path><path d="M324.7 311.71C333.91 313.03 341.92 317.08 348.45 323.16 354.93 329.9 359.89 338.23 363.15 347.39 366.38 356.75 368.01 366.69 367.95 376.59 368.12 386.53 366.88 396.39 364.23 405.58 362.16 414.77 359.06 422.36 355.21 428.16 349.76 435.86 334.79 442.21 325.01 441.57 318.24 441.39 310.38 440.42 301.67 438.81 292.95 438.61 284.24 437.96 276.02 436.82 267.9 436.59 260.4 435.27 254.04 432.68 247.93 430.34 243.12 426.33 240.07 420.62 237.42 414.9 236.66 407.42 238.15 398.33 240.09 389.23 244.07 379.45 249.59 369.61 255.34 359.85 262.49 350.14 270.51 341.17 278.64 332.53 287.55 324.96 296.75 319.2 305.99 314.25 315.48 311.55 324.7 311.71" stroke-dasharray="3 6" transform="rotate(80.80000000000001, 320, 400)" opacity="0.44"></path><path d="M320.23 322.3C327.83 323.34 334.41 326.54 339.79 331.37 345.14 336.71 349.27 343.39 352.03 350.81 354.8 358.43 356.3 366.6 356.42 374.78 356.73 383.01 355.85 391.17 353.72 398.75 350.65 409.45 340.95 423.77 334.49 427.31 330.15 429.33 324.98 430.12 319.11 429.77 313.28 429.98 306.66 429.44 299.44 428.22 292.22 427.96 285.1 427.13 278.46 425.78 268.88 424.31 254.11 416.85 249.9 410.18 247.85 405.34 247.34 399.11 248.66 391.62 250.29 384.12 253.59 376.09 258.15 368.06 262.89 360.12 268.79 352.29 275.42 345.15 282.13 338.29 289.52 332.36 297.13 327.94 304.78 324.12 312.63 322.08 320.23 322.3" stroke-dasharray="1 2" transform="rotate(84.84, 320, 400)" opacity="0.68"></path><path d="M315.76 332.89C327.78 334.97 336.6 343.3 341.17 354.51 345.83 366.39 346.71 380.01 343.21 392.02 340.73 404.02 334.79 411.94 326.94 415.34 319.6 419.26 309.54 420 298.03 417.63 286.51 417.68 275.76 415.05 268.05 409.99 260.78 405.7 257.15 397.42 259.17 385.53 262 373.64 269.93 360.57 280.31 349.65 290.99 339.55 303.72 332.94 315.76 332.89" stroke-dasharray="5 7" transform="rotate(88.88, 320, 400)" opacity="0.73"></path><path d="M311.45 343.49C320.37 344.87 327.02 350.7 330.6 358.67 334.28 367.09 335.18 376.96 332.71 385.88 330.79 394.8 326.07 400.98 319.87 404.03 313.95 407.47 306.12 408.57 297.5 407.04 288.87 406.85 281.09 404.28 275.67 399.89 270.5 395.99 268.03 389.38 269.67 380.54 271.79 371.69 277.63 362.35 285.28 354.8 293.12 347.77 302.52 343.31 311.45 343.49" stroke-dasharray="1 4" transform="rotate(92.92, 320, 400)" opacity="0.49"></path><path d="M307.49 354.08C319.27 356.22 325.54 369 322.2 380.81 319.83 392.61 309.37 398.74 297.86 396.44 286.35 396.49 278.05 388.74 280.18 377.01 283.18 365.27 295.69 354.12 307.49 354.08" stroke-dasharray="1 9" transform="rotate(96.96, 320, 400)" opacity="0.14"></path></g></svg>