<svg xmlns="http://www.w3.org/2000/svg" width="186" height="72" viewBox="0 0 186 72"><path fill="#0b0b15" d="M4.10 71L4.10 1L15.10 1L15.10 61L33.20 61L33.20 71L4.10 71ZM38.50 71L38.50 1L49.50 1L49.50 71L38.50 71ZM57.70 71L57.70 1L73.40 1L80.40 51.10L80.60 51.10L87.60 1L103.30 1L103.30 71L92.90 71L92.90 18L92.70 18L84.70 71L75.50 71L67.50 18L67.30 18L67.30 71L57.70 71ZM127.40 72Q119.30 72 115 67.40Q110.70 62.80 110.70 54.40L110.70 54.40L110.70 17.60Q110.70 9.20 115 4.60Q119.30 0 127.40 0L127.40 0Q135.50 0 139.80 4.60Q144.10 9.20 144.10 17.60L144.10 17.60L144.10 54.40Q144.10 62.80 139.80 67.40Q135.50 72 127.40 72L127.40 72ZM127.40 62Q133.10 62 133.10 55.10L133.10 55.10L133.10 16.90Q133.10 10 127.40 10L127.40 10Q121.70 10 121.70 16.90L121.70 16.90L121.70 55.10Q121.70 62 127.40 62L127.40 62ZM151.50 71L151.50 1L165.30 1L176 42.90L176.20 42.90L176.20 1L186 1L186 71L174.70 71L161.50 19.90L161.30 19.90L161.30 71L151.50 71Z"></path></svg>