<svg xmlns="http://www.w3.org/2000/svg" width="363" height="88" viewBox="0 0 363 88"><path fill="#fde312" d="M4.54 84.38L4.54 3.52L8.06 3.52L8.06 84.38L4.54 84.38ZM25.63 84.38L25.63 3.52L29.15 3.52L29.15 66.80L57.28 66.80L57.28 70.31L29.15 70.31L29.15 73.83L57.28 73.83L57.28 77.34L29.15 77.34L29.15 80.86L57.28 80.86L57.28 84.38L25.63 84.38ZM18.60 84.38L18.60 3.52L22.12 3.52L22.12 84.38L18.60 84.38ZM11.57 84.38L11.57 3.52L15.09 3.52L15.09 84.38L11.57 84.38ZM86.13 84.38L86.13 3.52L89.65 3.52L89.65 84.38L86.13 84.38ZM79.10 84.38L79.10 3.52L82.62 3.52L82.62 84.38L79.10 84.38ZM72.07 84.38L72.07 3.52L75.59 3.52L75.59 84.38L72.07 84.38ZM65.04 84.38L65.04 3.52L68.55 3.52L68.55 84.38L65.04 84.38ZM157.13 84.38L157.13 54.88L160.64 48.24L160.64 84.38L157.13 84.38ZM164.16 84.38L164.16 41.41L167.68 34.77L167.68 84.38L164.16 84.38ZM171.19 84.38L171.19 28.13L174.71 21.44L174.71 84.38L171.19 84.38ZM173.78 3.52L147.61 53.22L145.61 49.56L169.82 3.52L173.78 3.52ZM165.82 3.52L143.55 45.56L141.50 41.85L161.82 3.52L165.82 3.52ZM120.02 84.38L120.02 48.63L123.54 55.27L123.54 84.38L120.02 84.38ZM112.99 84.38L112.99 35.25L116.50 41.89L116.50 84.38L112.99 84.38ZM105.96 84.38L105.96 21.88L109.47 28.56L109.47 84.38L105.96 84.38ZM102.88 3.52L134.38 63.28L130.42 63.28L102.44 10.21L102.44 84.38L98.93 84.38L98.93 3.52L102.88 3.52ZM110.89 3.52L142.33 63.28L138.33 63.28L106.88 3.52L110.89 3.52ZM178.22 84.38L178.22 10.21L150.24 63.28L146.24 63.28L114.84 3.52L118.80 3.52L148.29 59.57L177.73 3.52L181.74 3.52L181.74 84.38L178.22 84.38ZM219.48 30.27Q213.82 35.94 213.82 43.95Q213.82 51.95 219.48 57.62Q225.15 63.28 233.15 63.28Q241.16 63.28 246.83 57.62Q252.49 51.95 252.49 43.95Q252.49 35.94 246.83 30.27Q241.16 24.61 233.15 24.61Q225.15 24.61 219.48 30.27ZM212.11 52.81Q210.30 48.58 210.30 43.95Q210.30 39.31 212.11 35.08Q213.92 30.86 216.99 27.78Q220.07 24.71 224.29 22.90Q228.52 21.09 233.15 21.09Q237.79 21.09 242.02 22.90Q246.24 24.71 249.32 27.78Q252.39 30.86 254.20 35.08Q256.01 39.31 256.01 43.95Q256.01 48.58 254.20 52.81Q252.39 57.03 249.32 60.11Q246.24 63.18 242.02 64.99Q237.79 66.80 233.15 66.80Q228.52 66.80 224.29 64.99Q220.07 63.18 216.99 60.11Q213.92 57.03 212.11 52.81ZM210.33 30.71Q206.79 36.77 206.79 43.95Q206.79 51.12 210.33 57.18Q213.87 63.23 219.92 66.77Q225.98 70.31 233.15 70.31Q240.33 70.31 246.39 66.77Q252.44 63.23 255.98 57.18Q259.52 51.12 259.52 43.95Q259.52 36.77 255.98 30.71Q252.44 24.66 246.39 21.12Q240.33 17.58 233.15 17.58Q225.98 17.58 219.92 21.12Q213.87 24.66 210.33 30.71ZM207.28 58.94Q203.27 52.05 203.27 43.95Q203.27 35.84 207.28 28.96Q211.28 22.07 218.16 18.07Q225.05 14.06 233.15 14.06Q241.26 14.06 248.14 18.07Q255.03 22.07 259.03 28.96Q263.04 35.84 263.04 43.95Q263.04 52.05 259.03 58.94Q255.03 65.82 248.14 69.82Q241.26 73.83 233.15 73.83Q225.05 73.83 218.16 69.82Q211.28 65.82 207.28 58.94ZM202.39 30.96Q199.76 37.16 199.76 43.95Q199.76 50.73 202.39 56.93Q205.03 63.13 209.50 67.60Q213.96 72.07 220.17 74.71Q226.37 77.34 233.15 77.34Q239.94 77.34 246.14 74.71Q252.34 72.07 256.81 67.60Q261.28 63.13 263.92 56.93Q266.55 50.73 266.55 43.95Q266.55 37.16 263.92 30.96Q261.28 24.76 256.81 20.29Q252.34 15.82 246.14 13.18Q239.94 10.55 233.15 10.55Q226.37 10.55 220.17 13.18Q213.96 15.82 209.50 20.29Q205.03 24.76 202.39 30.96ZM201.20 62.45Q196.24 53.96 196.24 43.95Q196.24 33.94 201.20 25.44Q206.15 16.94 214.65 11.99Q223.14 7.03 233.15 7.03Q243.16 7.03 251.66 11.99Q260.16 16.94 265.11 25.44Q270.07 33.94 270.07 43.95Q270.07 53.96 265.11 62.45Q260.16 70.95 251.66 75.90Q243.16 80.86 233.15 80.86Q223.14 80.86 214.65 75.90Q206.15 70.95 201.20 62.45ZM195.92 28.25Q192.72 35.74 192.72 43.95Q192.72 52.15 195.92 59.64Q199.12 67.14 204.54 72.56Q209.96 77.98 217.46 81.18Q224.95 84.38 233.15 84.38Q241.36 84.38 248.85 81.18Q256.35 77.98 261.77 72.56Q267.19 67.14 270.39 59.64Q273.58 52.15 273.58 43.95Q273.58 35.74 270.39 28.25Q267.19 20.75 261.77 15.33Q256.35 9.91 248.85 6.71Q241.36 3.52 233.15 3.52Q224.95 3.52 217.46 6.71Q209.96 9.91 204.54 15.33Q199.12 20.75 195.92 28.25ZM192.70 61.01Q189.21 52.88 189.21 43.95Q189.21 35.01 192.70 26.88Q196.19 18.75 202.08 12.87Q207.96 6.98 216.09 3.49Q224.22 0 233.15 0Q242.09 0 250.22 3.49Q258.35 6.98 264.23 12.87Q270.12 18.75 273.61 26.88Q277.10 35.01 277.10 43.95Q277.10 52.88 273.61 61.01Q270.12 69.14 264.23 75.02Q258.35 80.91 250.22 84.40Q242.09 87.89 233.15 87.89Q224.22 87.89 216.09 84.40Q207.96 80.91 202.08 75.02Q196.19 69.14 192.70 61.01ZM341.80 3.52L341.80 45.46L338.28 39.65L338.28 3.52L341.80 3.52ZM348.83 3.52L348.83 56.98L345.31 51.07L345.31 3.52L348.83 3.52ZM355.86 3.52L355.86 68.65L352.34 62.70L352.34 3.52L355.86 3.52ZM305.47 84.38L305.47 42.43L308.98 48.24L308.98 84.38L305.47 84.38ZM298.44 84.38L298.44 30.91L301.95 36.82L301.95 84.38L298.44 84.38ZM291.41 84.38L291.41 19.24L294.92 25.20L294.92 84.38L291.41 84.38ZM342.33 84.38L292.63 3.52L296.73 3.52L346.44 84.38L342.33 84.38ZM350.54 84.38L300.93 3.52L305.08 3.52L354.74 84.38L350.54 84.38ZM358.74 84.38L309.18 3.52L313.28 3.52L359.38 78.66L359.38 3.52L362.89 3.52L362.89 84.38Q362.89 84.38 358.74 84.38L358.74 84.38ZM334.08 84.38L287.89 9.23L287.89 84.38L284.38 84.38L284.38 3.52Q284.38 3.52 288.57 3.52L288.57 3.52L338.13 84.38L334.08 84.38Z"></path></svg>