<svg xmlns="http://www.w3.org/2000/svg" width="306" height="73" viewBox="0 0 306 73"><path fill="#92d14b" d="M55.52 56.98L55.52 71.00L6.49 71.00L6.49 0.98L20.51 0.98L20.51 56.98L55.52 56.98ZM76.81 0.98L76.81 71.00L62.79 71.00L62.79 0.98L76.81 0.98ZM159.28 21.00L159.28 71.00L145.31 71.00L145.31 21.00Q145.31 19.53 144.75 18.26Q144.19 16.99 143.24 16.04Q142.29 15.09 141.02 14.55Q139.75 14.01 138.28 14.01L138.28 14.01Q136.82 14.01 135.55 14.55Q134.28 15.09 133.33 16.04Q132.37 16.99 131.84 18.26Q131.30 19.53 131.30 21.00L131.30 21.00L131.30 71.00L117.29 71.00L117.29 21.00Q117.29 19.53 116.75 18.26Q116.21 16.99 115.26 16.04Q114.31 15.09 113.04 14.55Q111.77 14.01 110.30 14.01L110.30 14.01Q108.84 14.01 107.57 14.55Q106.30 15.09 105.35 16.04Q104.39 16.99 103.86 18.26Q103.32 19.53 103.32 21.00L103.32 21.00L103.32 71.00L89.31 71.00L89.31 21.00Q89.31 16.65 90.94 12.82Q92.58 8.98 95.43 6.13Q98.29 3.27 102.12 1.64Q105.96 0 110.30 0L110.30 0Q114.21 0 117.82 1.39Q121.44 2.78 124.32 5.42L124.32 5.42Q127.20 2.78 130.79 1.39Q134.38 0 138.28 0L138.28 0Q142.63 0 146.46 1.64Q150.29 3.27 153.15 6.13Q156.01 8.98 157.64 12.82Q159.28 16.65 159.28 21.00L159.28 21.00ZM240.38 36.28L240.38 36.28Q240.38 41.26 239.09 45.87Q237.79 50.49 235.45 54.52Q233.11 58.54 229.79 61.87Q226.46 65.19 222.46 67.55Q218.46 69.92 213.82 71.22Q209.18 72.51 204.20 72.51L204.20 72.51Q199.22 72.51 194.60 71.22Q189.99 69.92 185.96 67.55Q181.93 65.19 178.61 61.87Q175.29 58.54 172.92 54.52Q170.56 50.49 169.26 45.87Q167.97 41.26 167.97 36.28L167.97 36.28Q167.97 31.30 169.26 26.66Q170.56 22.02 172.92 18.02Q175.29 14.01 178.61 10.69Q181.93 7.37 185.96 5.03Q189.99 2.69 194.60 1.39Q199.22 0.10 204.20 0.10L204.20 0.10Q209.18 0.10 213.82 1.39Q218.46 2.69 222.46 5.03Q226.46 7.37 229.79 10.69Q233.11 14.01 235.45 18.02Q237.79 22.02 239.09 26.66Q240.38 31.30 240.38 36.28ZM226.46 36.28L226.46 36.28Q226.46 31.69 224.71 27.61Q222.95 23.54 219.95 20.53Q216.94 17.53 212.87 15.77Q208.79 14.01 204.20 14.01L204.20 14.01Q199.56 14.01 195.51 15.77Q191.46 17.53 188.43 20.53Q185.40 23.54 183.64 27.61Q181.88 31.69 181.88 36.28L181.88 36.28Q181.88 40.87 183.64 44.90Q185.40 48.93 188.43 51.95Q191.46 54.98 195.51 56.74Q199.56 58.50 204.20 58.50L204.20 58.50Q208.79 58.50 212.87 56.74Q216.94 54.98 219.95 51.95Q222.95 48.93 224.71 44.90Q226.46 40.87 226.46 36.28ZM305.57 0.98L305.57 71.00L290.58 71.00L263.57 24.90L263.57 71.00L249.56 71.00L249.56 0.98L264.55 0.98L291.55 47.12L291.55 0.98L305.57 0.98Z"></path></svg>