<svg xmlns="http://www.w3.org/2000/svg" version="1.1" xmlns:xlink="http://www.w3.org/1999/xlink" xmlns:svgjs="http://svgjs.dev/svgjs" viewBox="0 0 800 800"><defs><linearGradient x1="50%" y1="0%" x2="50%" y2="100%" id="uundulate-grad"><stop stop-color="hsl(37, 99%, 67%)" stop-opacity="1" offset="45%"></stop><stop stop-color="hsl(316, 73%, 52%)" stop-opacity="1" offset="100%"></stop></linearGradient></defs><g stroke-width="2" stroke="url(#uundulate-grad)" fill="none"><path d="M537.1094538842344 87.10893741278392C610.2921428152745 216.10924804051353 725.9488534307665 574.6646605479667 650.3394427800786 702.2577760451745C574.7300321293907 829.8508915423822 272.7336573955426 785.9331985965377 174.1842827609326 699.5558917993812C75.63490812632261 613.1785850022247 151.28614179433532 416.0841214953448 177.30244453395068 287.64670341882197C203.31874727356603 159.20928534229915 224.10274229644318 124.83498628332899 299.06253591108566 83.05628503207106C374.0223295257281 41.27758378081319 463.9267649531945 -41.89137321494576 537.1094538842344 87.10893741278392C610.2921428152745 216.10924804051353 725.9488534307665 574.6646605479667 650.3394427800786 702.2577760451745 "></path><path d="M530.8772059804057 101.33132363611969C600.7334090509439 224.46798378077074 711.1329964566406 566.7254229924306 638.9603771991658 688.5188514215833C566.7877579416911 810.3122798507361 278.51849115029063 768.3908456751578 184.44863354452656 685.9397800960537C90.37877593876249 603.4887145169496 162.59131716732003 415.3530902603824 187.4250606914984 292.7537366418833C212.25880421567672 170.1543830233843 232.09807219205942 137.34255210345822 303.6506024605817 97.46288272725747C375.203132729104 57.58321335105677 461.02100290986743 -21.805336508531354 530.8772059804057 101.33132363611969C600.7334090509439 224.46798378077074 711.1329964566406 566.7254229924306 638.9603771991658 688.5188514215833 "></path><path d="M524.6449428177878 115.55358778914302C591.1746600278241 232.82659745071544 696.3171242237258 558.7860633665821 627.5812963594641 674.7798047276799C558.8454684952025 790.7735460887777 284.30330964624966 750.848370683465 194.7129690693315 672.3235463224136C105.12262849241336 593.7987219613619 173.89647728151573 414.62193695510746 197.547661590257 297.8606477946322C221.19884589899823 181.09935863415694 240.0933868288866 149.8499958532749 308.2386537512888 111.86935835213137C376.383920673691 73.88872085098785 458.1152256077514 -1.7194218724293933 524.6449428177878 115.55358778914302C591.1746600278241 232.82659745071544 696.3171242237258 558.7860633665821 627.5812963594641 674.7798047276799 "></path><path d="M518.412725431537 129.7759129773226C581.6159567810716 241.1852721558164 681.5012977671782 550.8467647758896 616.2022612961296 661.0408190689326C550.903224825081 771.2348733619756 290.0881739185758 733.3059567269283 204.9773503705036 658.7073735839294C119.86652682243135 584.1087904409305 185.20168317207862 413.8908446849888 207.6703082653828 302.96761998253726C230.13893335868704 192.04439528008578 248.0887472420809 162.35750063824787 312.82675081836305 126.27589501216153C377.5647543946451 90.19428938607518 455.2094940820025 18.366553798828818 518.412725431537 129.7759129773226C581.6159567810716 241.1852721558164 681.5012977671782 550.8467647758896 616.2022612961296 661.0408190689326 "></path><path d="M512.1804775277083 143.9982381655022C572.0572230167409 249.54394686091734 666.6854407930525 542.9074661851972 604.823195715217 647.3018334101853C542.9609506373813 751.6962006351735 295.87300767332385 715.763542770392 215.24170115409754 645.0912008454455C134.61039463487123 574.4188589204991 196.50685854506338 413.1597524148701 217.79292442293053 308.07459217044243C239.07899030079767 202.98943192601462 256.08407713769714 174.86500542322085 317.4148173678591 140.68243167219168C378.74555759802115 106.49985792116252 452.30373203867543 38.45252947008697 512.1804775277083 143.9982381655022C572.0572230167409 249.54394686091734 666.6854407930525 542.9074661851972 604.823195715217 647.3018334101853 "></path><path d="M505.9481991063012 158.22059387125984C562.4984587348322 257.9026520835964 651.8695533013486 534.968198112083 593.4440996167261 633.5628782690162C535.0186459321037 732.1575584259494 301.6578109104938 698.2211593314335 225.50602142011343 631.4750586245398C149.35423192973298 564.728957917646 207.81200340047002 412.4286906623297 227.91551006290007 313.1815948759256C248.01901672533018 213.93449908952164 264.07937651573525 187.37254072577196 322.0028533997771 155.08899884979996C379.92633028381897 122.80545697382797 449.39793947777025 58.53853565892331 505.9481991063012 158.22059387125984C562.4984587348322 257.9026520835964 651.8695533013486 534.968198112083 593.4440996167261 633.5628782690162 "></path><path d="M499.71596646126136 172.4428885418613C552.9397402292905 266.26129627111925 637.053711586012 527.0288690038125 582.0650492946025 619.8238620926907C527.0763870031932 712.6188551815691 307.442659924031 680.6787148573188 235.77038746249644 617.8588553684776C164.0981150009619 555.0389958796364 219.11719403224384 411.6975678746328 238.03814147923686 318.28853654625254C256.95908892622987 224.8795052178724 272.07472167014055 199.8800149931668 326.5909352080623 169.495504992252C381.107148745984 139.11099499133712 446.49219269323237 78.62448081260334 499.71596646126136 172.4428885418613C552.9397402292905 266.26129627111925 637.053711586012 527.0288690038125 582.0650492946025 619.8238620926907 "></path><path d="M493.48371855743267 186.66521373004088C543.3810064649599 274.6199709762202 622.2378546118862 519.0895704131201 570.6859837136899 606.0848764339435C519.1341128154936 693.0801824547669 313.227493678779 663.1363009007823 246.0347382460904 604.2426826299936C178.84198281340178 545.349064359205 230.4223694052286 410.96647560451424 248.16075763678452 323.3955087341577C265.8991458683405 235.8245418638013 280.0700515657567 212.3875197781398 331.1790017575584 183.90204165228215C382.28795194936004 155.41656352642445 443.5864306499053 98.71045648386155 493.48371855743267 186.66521373004088C543.3810064649599 274.6199709762202 622.2378546118862 519.0895704131201 570.6859837136899 606.0848764339435 "></path><path d="M487.25147065360375 200.8875236594314C533.8222727006292 282.9786304225321 607.4219976377603 511.15025656363866 559.3069181327772 592.3458755164072C511.19183862779414 673.5414944691757 319.0123274335271 645.5938716854567 256.2990890296844 590.6264946327208C193.58585062584166 535.6591175799847 241.72754477821337 410.2353680756065 258.28337379433225 328.5024656632738C274.8392028104511 246.76956325094108 288.06538146137297 224.8950093043237 335.7670683070545 198.30856305352324C383.4687551527361 171.72211680272272 440.68066860657837 118.7964168963307 487.25147065360375 200.8875236594314C533.8222727006292 282.9786304225321 607.4219976377603 511.15025656363866 559.3069181327772 592.3458755164072 "></path><path d="M481.01922274977494 215.10984884761092C524.2635389362986 291.337305127633 592.6061406636347 503.2109579729463 547.9278525518646 578.60688985766C503.24956444009445 654.0028217423735 324.79716118827514 628.0514577289202 266.56343981327836 577.0103218942368C208.32971843828153 525.9691860595533 253.03272015119813 409.50427580548785 268.40598995188 333.6094378511789C283.77925975256176 257.71459989686997 296.06071135698915 237.4025140892967 340.3551348565506 212.7150997135534C384.64955835611204 188.02768533781006 437.7749065632513 138.88239256758885 481.01922274977494 215.10984884761092C524.2635389362986 291.337305127633 592.6061406636347 503.2109579729463 547.9278525518646 578.60688985766 "></path><path d="M474.78697484594613 229.33215877700144C514.704805171968 299.6959645739449 577.7902836895089 495.27164412346474 536.5487869709519 564.8678889401235C495.30729025239486 634.4641337567823 330.58199494302323 610.5090285135946 276.8277905968723 563.3941338969637C223.07358625072146 516.2792392803328 264.3378955241829 408.7731682765801 278.52860610942764 338.7163947802949C292.7193166946724 268.65962128400975 304.0560412526054 249.9100036154806 344.9432014060467 227.12162111479444C385.83036155948804 204.33323861410832 434.86914451992425 158.968352980058 474.78697484594613 229.33215877700144C514.704805171968 299.6959645739449 577.7902836895089 495.27164412346474 536.5487869709519 564.8678889401235 "></path><path d="M468.5547269421172 243.55449922397008C505.14607140763724 308.0546545378349 562.9744267153833 487.33236079156154 525.1697213900393 551.1289185401654C487.3650160646953 614.9254762887692 336.3668286977713 592.966629815847 287.0921413804663 549.7779764172687C237.81745406316134 506.5893230186905 275.64307089716766 408.0420912652505 288.6512222669753 343.8233822269891C301.659373636783 279.6046731887277 312.0513711482216 262.4175236592426 349.53126795554283 241.52817303361365C387.01116476286404 220.63882240798472 431.9633824765972 179.05434391010522 468.5547269421172 243.55449922397008C505.14607140763724 308.0546545378349 562.9744267153833 487.33236079156154 525.1697213900393 551.1289185401654 "></path><path d="M462.3224790382884 257.77682441214967C495.58733764330657 316.41332924293584 548.1585697412575 479.39306220086917 513.7906558091265 537.3899328814181C479.4227418769958 595.386803561967 342.15166245251936 575.4242158593106 297.3564921640603 536.161803678785C252.5613218756012 496.8993914982591 286.9482462701524 407.31099899513185 298.77383842452303 348.9303544148942C310.59943057889365 290.5497098346566 320.0467010438378 274.92502844421557 354.1193345050389 255.9347096936438C388.19196796624004 236.94439094307205 429.05762043327024 199.14031958136343 462.3224790382884 257.77682441214967C495.58733764330657 316.41332924293584 548.1585697412575 479.39306220086917 513.7906558091265 537.3899328814181 "></path><path d="M456.0902311344596 271.9991343415401C486.0286038789759 324.77198868924773 533.3427127671317 471.45374835138773 502.411590228214 523.6509319638817C471.4804676892961 575.8481155763758 347.9364962072674 557.881786643985 307.62084294765424 522.5456156815119C267.3051896880411 487.20944471903863 298.2534216431372 406.5798914662241 308.89645458207076 354.0373113440103C319.5394875210043 301.49473122179637 328.04203093945404 287.4325179703995 358.707401054535 270.3412310948849C389.37277116961604 253.24994421937032 426.1518583899432 219.22627999383258 456.0902311344596 271.9991343415401C486.0286038789759 324.77198868924773 533.3427127671317 471.45374835138773 502.411590228214 523.6509319638817 "></path><path d="M449.8579832306307 286.2214595297197C476.46987011464523 333.1306633943487 518.526855793006 463.51444976069524 491.0325246473012 509.9119463051344C463.53819350159665 556.3094428495735 353.7213299620155 540.3393726874485 317.8851937312482 508.9294429430279C282.04905750048096 477.5195131986072 309.55859701612195 405.84879919610546 319.0190707396184 359.14428353191533C328.4795444631149 312.43976786772527 336.0373608350703 299.94002275537247 363.29546760403116 284.74776775491506C390.553574372992 269.55551275445765 423.2460963466162 239.31225566509073 449.8579832306307 286.2214595297197C476.46987011464523 333.1306633943487 518.526855793006 463.51444976069524 491.0325246473012 509.9119463051344 "></path><path d="M443.6257353268019 300.4437847178993C466.91113635031456 341.48933809944964 503.71099881888017 455.575151170003 479.6534590663887 496.1729606463872C455.59591931389707 536.7707701227714 359.5061637167635 522.7969587309119 328.1495445148422 495.313270204544C296.79292531292083 467.82958167817594 320.86377238910666 405.11770692598685 329.1416868971661 364.2512557198205C337.4196014052256 323.38480451365416 344.03269073068645 312.44752754034545 367.88353415352725 299.1543044149452C391.73437757636805 285.861081289545 420.3403343032892 259.39823133634894 443.6257353268019 300.4437847178993C466.91113635031456 341.48933809944964 503.71099881888017 455.575151170003 479.6534590663887 496.1729606463872 "></path><path d="M437.39348742297307 314.6660946472898C457.352402585984 349.84799754576153 488.89514184475445 447.63583732052143 468.27439348547597 482.4339597288508C447.65364512619743 517.2320821371802 365.2909974715116 505.25452951558634 338.41389529843616 481.6970822072709C311.5367931253607 458.1396348989555 332.1689477620914 404.3865993970791 339.2643030547138 369.3582126489365C346.3596583473362 334.32982590079394 352.0280206263027 324.95501706652936 372.47160070302334 313.5608258161863C392.915180779744 302.16663456584325 417.4345722599621 279.48419174881803 437.39348742297307 314.6660946472898C457.352402585984 349.84799754576153 488.89514184475445 447.63583732052143 468.27439348547597 482.4339597288508 "></path><path d="M431.1612395191442 328.8883893178912C447.7936688216533 358.20664173328436 474.0792848706287 439.696508212251 456.89532790456326 468.6949435525255C439.7113709384979 497.69337889279996 371.07583122625965 487.7120850414717 348.6782460820301 468.0808789512089C326.2806609378006 448.44967286094595 343.4741231350762 403.65547660938233 349.38691921226155 374.4651543192635C355.29971528944685 345.2748320291447 360.0233505219189 337.4624913339242 377.0596672525195 327.96733195863834C394.09598398312 318.4721725833524 414.5288102166351 299.5701369024981 431.1612395191442 328.8883893178912C447.7936688216533 358.20664173328436 474.0792848706287 439.696508212251 456.89532790456326 468.6949435525255 "></path><path d="M424.9290068741044 343.1107450236489C438.2349503161117 366.5653469559634 459.26344315529207 431.7572401391367 445.51627758243967 454.95598841135626C431.7691120095874 478.15473668357583 376.8606802397968 470.1697016025133 358.9426121244132 454.464736730303C341.02454400902957 438.7597718580927 354.77931376685 402.9244148568418 359.5095506285983 379.57215702474673C364.23978749034654 356.21989919265167 368.01869567632417 349.97002663647527 381.64774906080464 342.37389913624656C395.27680244528506 334.77777163601786 411.6230634320971 319.65614309133446 424.9290068741044 343.1107450236489C438.2349503161117 366.5653469559634 459.26344315529207 431.7572401391367 445.51627758243967 454.95598841135626 "></path><path d="M418.69674371148653 357.33305495303944C428.676201292992 374.92400640227527 444.4475709223772 423.81792628965525 434.13719674273796 441.21698749381994C423.82682256309874 458.61604869798464 382.6454987357558 452.6272723871877 369.2069476492181 440.84854873303C355.7683965626804 429.06982507887227 366.0844738810457 402.1933073279341 369.6321515273569 384.6791139538628C373.1798291736681 367.1649205797915 376.01401031315135 362.4775161626592 386.23580035151167 356.78042053748766C396.457590389872 351.08332491231613 408.71728612998106 339.74210350380355 418.69674371148653 357.33305495303944C428.676201292992 374.92400640227527 444.4475709223772 423.81792628965525 434.13719674273796 441.21698749381994 "></path><path d="M412.46449580765767 371.5553648824299C419.11746752866134 383.28266584858716 429.6317139482515 415.8786124401738 422.7581311618253 427.4779865762836C415.88454837539916 439.0773607123934 388.4303324905039 435.08484317186213 379.47129843281203 427.23236073575697C370.51226437512025 419.3798782996518 377.3896492540305 401.4621997990264 379.7547676849046 389.78607088297883C382.11988611577874 378.10994196693133 384.0093402087676 374.9850056888431 390.82386690100776 371.18694193872875C397.638393593248 367.3888781886144 405.81152408665406 359.8280639162727 412.46449580765767 371.5553648824299C419.11746752866134 383.28266584858716 429.6317139482515 415.8786124401738 422.7581311618253 427.4779865762836 "></path><path d="M406.23224790382886 385.7776748118204C409.55873376433067 391.64132529489905 414.8158569741257 407.9392985906924 411.37906558091265 413.73898565874725C407.9422741876996 419.5386727268022 394.2151662452519 417.5424139565365 389.73564921640605 413.61617273848395C385.2561321875601 409.6899315204314 388.69482462701524 400.73109227011867 389.87738384245233 394.8930278120949C391.05994305788937 389.0549633540711 392.00467010438376 387.492495215027 395.4119334505039 385.59346333996984C398.819196796624 383.69443146491267 402.905762043327 379.9140243287418 406.23224790382886 385.7776748118204C409.55873376433067 391.64132529489905 414.8158569741257 407.9392985906924 411.37906558091265 413.73898565874725 "></path></g></svg>